#!OML:ASF F:\VICON\USERDATA\INSTALL\rory3\rory3.ASF
:FULLY-SPECIFIED
:DEGREES
230
root 0.4303894575631079 17.765723122301374 63.130003464179325 -2.238273286958476 -0.6852536060034398 -2.105762028562938
lfemur -6.243237710677242 -2.5021314664411056 -17.821222905440045
ltibia 31.045818612833287
lfoot 6.845589346959427 -6.378532371166426
ltoes -2.255372387999273
rfemur -15.951471819991147 4.925797884255934 24.68736778624218
rtibia 35.20053494620444
rfoot -6.1774338520503775 -10.186002596033331
rtoes 5.900955904818295
lowerback 11.21527374903962 -0.4202880934788027 1.2592457882146102
upperback 0.08543972637997338 -0.2290297874995723 2.032733364268242
thorax -5.490134173049111 -0.17587205130385974 1.6037100553467367
lowerneck -16.21618673757743 -2.985045166824963 -3.492611495116676
upperneck 22.186668793907582 -3.595782798853363 1.4465182751655592
head 9.686305733970451 -1.783236751905257 0.7125508566636005
lclavicle -2.0278502609876858e-15 -7.126421740481652e-16
lhumerus -32.28488537892386 1.077274207127286 80.64810222533245
lradius 29.84102316762322
lwrist 9.640425399530725
lhand -31.009179519522135 17.58520786847681
lfingers 7.12502
lthumb -4.009176731931138 47.91277090055033
rclavicle -2.0284965336655427e-15 -7.130355006965904e-16
rhumerus -29.284629272908102 -21.083648566871464 -75.59211860528103
rradius 20.732216696056952
rwrist 6.229506141061675
rhand -17.16895427353239 21.59499108402405
rfingers 7.12502
rthumb 8.209689401318444 -6.7196515393030625
231
root 0.4228112052801912 17.769540144505967 63.180854826826504 -2.170039205916888 -0.44819006996532307 -2.1316947060049527
lfemur -6.934165993917247 -2.5644299883966046 -17.642015775288144
ltibia 31.875048155373314
lfoot 6.811735617619391 -6.442444330803051
ltoes -1.7117205936796784
rfemur -15.466727236772634 4.829573829272133 24.8464597353154
rtibia 35.5145386635189
rfoot -6.399580462201753 -10.298779621938609
rtoes 6.175205354755862
lowerback 11.160692797943062 -0.4395512953884807 1.4172667052292371
upperback 0.022010957263583833 -0.2325391916059954 2.0598900164690215
thorax -5.511477466181014 -0.18519946261764847 1.511264459116528
lowerneck -16.175776655093284 -2.999874906157178 -3.4685939949559588
upperneck 22.177817246321148 -3.6242659900651852 1.4445111150022611
head 9.675676966587204 -1.793363259914367 0.7025473299982655
lclavicle -2.0273722816482003e-15 -7.123369977043474e-16
lhumerus -32.67714671275928 1.1174588068106885 80.62505847395698
lradius 29.653012638061522
lwrist 9.391895782176137
lhand -30.969766482188568 17.659560976364563
lfingers 7.12502
lthumb -3.956016241723527 47.865666532042894
rclavicle -2.0281379499928003e-15 -7.128065554734215e-16
rhumerus -29.391644135005233 -21.23259733568052 -75.69126633671829
rradius 20.77556570157337
rwrist 6.258511340641867
rhand -17.214600823501183 21.53788567451046
rfingers 7.12502
rthumb 8.181126986743383 -6.814532132988728
232
root 0.41548733849156494 17.755343666099403 63.12480910442882 -2.2768998325458663 -0.26771866724471943 -2.1380585933356495
lfemur -7.723488277784672 -2.5913654978222773 -17.511934731911808
ltibia 32.81244384327193
lfoot 6.477703316939898 -6.300756386240681
ltoes -1.831574763308815
rfemur -15.16446798184651 4.529418360365115 25.0060712421116
rtibia 36.263047454927374
rfoot -6.6097748343903815 -10.31096521896562
rtoes 6.177856239743658
lowerback 11.250248077498435 -0.43351461491319676 1.540195784248191
upperback 0.011052600800087103 -0.18917242331699974 2.0761489416682033
thorax -5.604808385714927 -0.16852562424204776 1.419632001789342
lowerneck -16.128723862278456 -3.02408308189112 -3.480775997925285
upperneck 22.142808179729528 -3.6673529481917178 1.4968226800588809
head 9.657653157444184 -1.8054861739969428 0.7119506295488219
lclavicle -2.0274743430814025e-15 -7.124022085928269e-16
lhumerus -32.9701489899714 1.0289747782213898 80.66423510706569
lradius 29.392071233979504
lwrist 9.068311156795168
lhand -30.937467614241573 17.768923934011067
lfingers 7.12502
lthumb -3.895417868098134 47.880609600525986
rclavicle -2.027912151932674e-15 -7.126623974787272e-16
rhumerus -29.413943067463343 -21.250504684505078 -75.85445384270844
rradius 20.849648710187232
rwrist 6.17776109173645
rhand -17.305463500621297 21.473084113918905
rfingers 7.12502
rthumb 8.121084400467803 -7.018885756278925
233
root 0.41177498263443557 17.75963831953028 63.18772843181093 -2.1607381956749263 -0.09810026341929015 -2.2364725461244195
lfemur -8.639443057333164 -2.5434475716327296 -17.393187300229673
ltibia 33.33021193071099
lfoot 6.307980262432574 -5.715500276980777
ltoes -2.0041764719158826
rfemur -14.990877163449248 4.299862616600508 25.219653813519702
rtibia 37.00901567298046
rfoot -6.74804012559337 -10.295352449373999
rtoes 6.010361094154616
lowerback 11.190081156945766 -0.4222003468587494 1.6842684104348058
upperback -0.012871986279921366 -0.16689982954825316 2.1140863276040918
thorax -5.590753376823262 -0.15125078348696763 1.355943838359746
lowerneck -16.117132235637023 -3.037071630365501 -3.469081455522609
upperneck 22.144819228387362 -3.686491377717255 1.5043989465530874
head 9.661014641077918 -1.813458015013195 0.7068275652415009
lclavicle -2.02733979505612e-15 -7.123161750013153e-16
lhumerus -33.166942252221645 1.04146926444187 80.63195553063231
lradius 29.137519509704628
lwrist 8.953665706712652
lhand -30.95898126340316 17.73221339994809
lfingers 7.12502
lthumb -3.9198235752311916 47.818326984226076
rclavicle -2.0277097542720325e-15 -7.125331515574669e-16
rhumerus -29.374767323487784 -21.203282951740892 -75.9617982386185
rradius 20.909104750206996
rwrist 6.038091572678194
rhand -17.36681635580348 21.49682637800652
rfingers 7.12502
rthumb 8.091744000511133 -7.09164992962122
